<svg width="330" height="333" xmlns="http://www.w3.org/2000/svg">
 <!-- Generator: Sketch 44.1 (41455) - http://www.bohemiancoding.com/sketch -->
 <title>logo</title>
 <desc>Created with Sketch.</desc>

 <g>
  <title>background</title>
  <rect fill="none" id="canvas_background" height="335" width="332" y="-1" x="-1"/>
 </g>
 <g>
  <title>Layer 1</title>
  <g fill-rule="evenodd" fill="none" id="Page-1">
   <g id="logo">
    <path fill="#96CCE7" id="Combined-Shape" d="m0,165c0,-91.126984 73.873016,-165 165,-165c91.126984,0 165,73.873016 165,165l-330,0zm0,0l330,0l0,120l-330,0l0,-120z"/>
    <rect height="35" width="330" y="285" x="0" fill="#406376" id="Bottom_Rect"/>
    <g id="Face">
     <path transform="rotate(15, 120.524, 237.657) translate(-40.5244, -138.657)" fill="#406376" id="Rectangle-3" d="m141.051178,374.996979c0,-2.487061 1.874847,-3.771423 4.216858,-2.937927c0,0 4.166,1.985809 15.788391,4.104126c11.253967,2.371307 20.972168,0.719025 19.910461,3.694244c-1.061707,2.97522 -35.4487,-1.871521 -35.4487,-1.871521c-2.467072,-0.329468 -4.46701,-2.609558 -4.46701,-5.099731l0,2.110809z"/>
     <g id="eye1">
      <circle r="21" cy="125" cx="230" fill="#FFFFFF" id="Oval-5"/>
      <circle r="9.333332" cy="125" cx="230" fill="#406376" id="Oval-5"/>
     </g>
     <g id="eye2">
      <circle r="18" cy="125" cx="106" fill="#FFFFFF" id="Oval-5"/>
      <circle r="8" cy="125" cx="106" fill="#406376" id="Oval-5"/>
     </g>
     <rect rx="4.5" height="9" width="56" y="117.687199" x="108.421218" transform="rotate(15, 108.211, 110.594) translate(-28.2106, -11.5936)" fill="#406376" id="Rectangle-3"/>
    </g>
    <g id="Lu-Glases">
     <circle r="39.5" cy="124.5" cx="229.5" stroke-width="7" stroke="#406376" id="Oval-2"/>
     <path fill="#406376" id="Combined-Shape" d="m261.719086,144.060715c19.121185,14.052963 42.731598,22.354568 68.280914,22.354568l0,-4.439133c-23.631683,0 -45.538208,-7.386276 -63.536865,-19.976151l-3.591125,0c-0.362885,0.700287 -0.747498,1.387466 -1.152924,2.060715z"/>
    </g>
    <g fill="#AE3A53" id="Le-Bow">
     <path id="Combined-Shape" d="m165,310.905396c-13.594574,10.00528 -37.008827,25.393311 -46.627449,20.575623c-13.941071,-6.982697 -15.007904,-49.444977 0,-56.962036c10.300011,-5.158997 33.245384,10.178314 46.627449,20.308441c13.38208,-10.130127 36.327438,-25.467438 46.627441,-20.308441c15.007904,7.517059 13.941071,49.97934 0,56.962036c-9.618622,4.817688 -33.032867,-10.570343 -46.627441,-20.575623z"/>
    </g>
   </g>
  </g>
 </g>
</svg>